NotoSansMultani-Regular.ufo
<glyph name="zeroguru" format="2">
  <advance width="551"/>
  <unicode hex="0A66"/>
  <note>
zeroguru
</note>
  <outline>
    <contour>
      <point x="276" y="78" type="curve" smooth="yes"/>
      <point x="420" y="78"/>
      <point x="513" y="171"/>
      <point x="513" y="315" type="curve" smooth="yes"/>
      <point x="513" y="459"/>
      <point x="418" y="553"/>
      <point x="275" y="553" type="curve" smooth="yes"/>
      <point x="137" y="553"/>
      <point x="39" y="460"/>
      <point x="39" y="316" type="curve" smooth="yes"/>
      <point x="39" y="172"/>
      <point x="131" y="78"/>
    </contour>
    <contour>
      <point x="273" y="151" type="curve" smooth="yes"/>
      <point x="178" y="151"/>
      <point x="121" y="214"/>
      <point x="121" y="313" type="curve" smooth="yes"/>
      <point x="121" y="416"/>
      <point x="180" y="480"/>
      <point x="277" y="480" type="curve" smooth="yes"/>
      <point x="372" y="480"/>
      <point x="431" y="417"/>
      <point x="431" y="317" type="curve" smooth="yes"/>
      <point x="431" y="213"/>
      <point x="373" y="151"/>
    </contour>
  </outline>
</glyph>
<glyph name="oneguru" format="2">
  <advance width="551"/>
  <unicode hex="0A67"/>
  <note>
oneguru
</note>
  <outline>
    <contour>
      <point x="500" y="-9" type="curve"/>
      <point x="510" y="64" type="line"/>
      <point x="449" y="64"/>
      <point x="436" y="83"/>
      <point x="436" y="156" type="curve" smooth="yes"/>
      <point x="436" y="446" type="line" smooth="yes"/>
      <point x="436" y="489"/>
      <point x="431" y="521"/>
      <point x="420" y="544" type="curve" smooth="yes"/>
      <point x="399" y="589"/>
      <point x="339" y="632"/>
      <point x="247" y="632" type="curve" smooth="yes"/>
      <point x="134" y="632"/>
      <point x="60" y="560"/>
      <point x="60" y="464" type="curve" smooth="yes"/>
      <point x="60" y="361"/>
      <point x="129" y="298"/>
      <point x="236" y="298" type="curve" smooth="yes"/>
      <point x="281" y="298"/>
      <point x="321" y="308"/>
      <point x="355" y="328" type="curve"/>
      <point x="355" y="146" type="line" smooth="yes"/>
      <point x="355" y="41"/>
      <point x="401" y="-9"/>
    </contour>
    <contour>
      <point x="236" y="370" type="curve" smooth="yes"/>
      <point x="176" y="370"/>
      <point x="141" y="405"/>
      <point x="141" y="464" type="curve" smooth="yes"/>
      <point x="141" y="524"/>
      <point x="178" y="560"/>
      <point x="243" y="560" type="curve" smooth="yes"/>
      <point x="316" y="560"/>
      <point x="355" y="526"/>
      <point x="355" y="454" type="curve" smooth="yes"/>
      <point x="355" y="411" type="line"/>
      <point x="323" y="382"/>
      <point x="285" y="370"/>
    </contour>
  </outline>
</glyph>
<glyph name="twoguru" format="2">
  <advance width="551"/>
  <unicode hex="0A68"/>
  <note>
twoguru
</note>
  <outline>
    <contour>
      <point x="443" y="-18" type="curve"/>
      <point x="501" y="35" type="line"/>
      <point x="458" y="80"/>
      <point x="402" y="127"/>
      <point x="333" y="174" type="curve"/>
      <point x="426" y="215"/>
      <point x="479" y="299"/>
      <point x="479" y="404" type="curve" smooth="yes"/>
      <point x="479" y="547"/>
      <point x="389" y="632"/>
      <point x="234" y="632" type="curve" smooth="yes"/>
      <point x="166" y="632"/>
      <point x="102" y="618"/>
      <point x="43" y="590" type="curve"/>
      <point x="71" y="525" type="line"/>
      <point x="120" y="548"/>
      <point x="172" y="559"/>
      <point x="228" y="559" type="curve" smooth="yes"/>
      <point x="337" y="559"/>
      <point x="397" y="503"/>
      <point x="397" y="402" type="curve" smooth="yes"/>
      <point x="397" y="319"/>
      <point x="351" y="256"/>
      <point x="267" y="229" type="curve"/>
      <point x="226" y="253"/>
      <point x="184" y="265"/>
      <point x="143" y="265" type="curve" smooth="yes"/>
      <point x="92" y="265"/>
      <point x="65" y="246"/>
      <point x="65" y="214" type="curve" smooth="yes"/>
      <point x="65" y="170"/>
      <point x="111" y="148"/>
      <point x="200" y="148" type="curve" smooth="yes"/>
      <point x="214" y="148"/>
      <point x="226" y="149"/>
      <point x="236" y="150" type="curve"/>
      <point x="306" y="106"/>
      <point x="375" y="50"/>
    </contour>
  </outline>
</glyph>
<glyph name="threeguru" format="2">
  <advance width="551"/>
  <unicode hex="0A69"/>
  <note>
threeguru
</note>
  <outline>
    <contour>
      <point x="425" y="-66" type="curve"/>
      <point x="483" y="-14" type="line"/>
      <point x="442" y="26"/>
      <point x="398" y="62"/>
      <point x="351" y="93" type="curve"/>
      <point x="440" y="118"/>
      <point x="485" y="167"/>
      <point x="485" y="236" type="curve" smooth="yes"/>
      <point x="485" y="289"/>
      <point x="454" y="332"/>
      <point x="393" y="361" type="curve"/>
      <point x="450" y="393"/>
      <point x="481" y="437"/>
      <point x="481" y="485" type="curve" smooth="yes"/>
      <point x="481" y="577"/>
      <point x="399" y="632"/>
      <point x="254" y="632" type="curve" smooth="yes"/>
      <point x="180" y="632"/>
      <point x="110" y="618"/>
      <point x="45" y="590" type="curve"/>
      <point x="73" y="525" type="line"/>
      <point x="126" y="548"/>
      <point x="184" y="559"/>
      <point x="249" y="559" type="curve" smooth="yes"/>
      <point x="350" y="559"/>
      <point x="399" y="534"/>
      <point x="399" y="481" type="curve" smooth="yes"/>
      <point x="399" y="440"/>
      <point x="366" y="410"/>
      <point x="310" y="395" type="curve"/>
      <point x="249" y="418"/>
      <point x="215" y="421"/>
      <point x="176" y="421" type="curve" smooth="yes"/>
      <point x="127" y="421"/>
      <point x="96" y="404"/>
      <point x="96" y="371" type="curve" smooth="yes"/>
      <point x="96" y="334"/>
      <point x="131" y="314"/>
      <point x="202" y="314" type="curve" smooth="yes"/>
      <point x="235" y="314"/>
      <point x="270" y="318"/>
      <point x="305" y="327" type="curve"/>
      <point x="368" y="312"/>
      <point x="404" y="280"/>
      <point x="404" y="237" type="curve" smooth="yes"/>
      <point x="404" y="188"/>
      <point x="355" y="155"/>
      <point x="271" y="147" type="curve"/>
      <point x="225" y="170"/>
      <point x="179" y="182"/>
      <point x="134" y="182" type="curve" smooth="yes"/>
      <point x="85" y="182"/>
      <point x="57" y="164"/>
      <point x="57" y="135" type="curve" smooth="yes"/>
      <point x="57" y="114"/>
      <point x="68" y="99"/>
      <point x="91" y="89" type="curve" smooth="yes"/>
      <point x="113" y="79"/>
      <point x="146" y="74"/>
      <point x="190" y="74" type="curve" smooth="yes"/>
      <point x="212" y="74"/>
      <point x="230" y="75"/>
      <point x="245" y="76" type="curve"/>
      <point x="300" y="45"/>
      <point x="360" y="-3"/>
    </contour>
  </outline>
</glyph>
<glyph name="fourguru" format="2">
  <advance width="551"/>
  <unicode hex="0A6A"/>
  <note>
fourguru
</note>
  <outline>
    <contour>
      <point x="276" y="-8" type="curve" smooth="yes"/>
      <point x="407" y="-8"/>
      <point x="486" y="58"/>
      <point x="486" y="165" type="curve" smooth="yes"/>
      <point x="486" y="224"/>
      <point x="459" y="270"/>
      <point x="404" y="298" type="curve"/>
      <point x="469" y="329"/>
      <point x="506" y="385"/>
      <point x="506" y="454" type="curve" smooth="yes"/>
      <point x="506" y="537"/>
      <point x="445" y="610"/>
      <point x="332" y="627" type="curve"/>
      <point x="322" y="558" type="line"/>
      <point x="391" y="543"/>
      <point x="426" y="508"/>
      <point x="426" y="449" type="curve" smooth="yes"/>
      <point x="426" y="376"/>
      <point x="375" y="338"/>
      <point x="272" y="338" type="curve" smooth="yes"/>
      <point x="176" y="338"/>
      <point x="125" y="378"/>
      <point x="125" y="449" type="curve" smooth="yes"/>
      <point x="125" y="506"/>
      <point x="161" y="546"/>
      <point x="229" y="558" type="curve"/>
      <point x="219" y="627" type="line"/>
      <point x="108" y="611"/>
      <point x="45" y="537"/>
      <point x="45" y="454" type="curve" smooth="yes"/>
      <point x="45" y="385"/>
      <point x="80" y="329"/>
      <point x="147" y="298" type="curve"/>
      <point x="94" y="271"/>
      <point x="64" y="226"/>
      <point x="64" y="167" type="curve" smooth="yes"/>
      <point x="64" y="58"/>
      <point x="144" y="-8"/>
    </contour>
    <contour>
      <point x="274" y="64" type="curve" smooth="yes"/>
      <point x="191" y="64"/>
      <point x="146" y="101"/>
      <point x="146" y="165" type="curve" smooth="yes"/>
      <point x="146" y="228"/>
      <point x="193" y="266"/>
      <point x="278" y="266" type="curve" smooth="yes"/>
      <point x="355" y="266"/>
      <point x="404" y="228"/>
      <point x="404" y="167" type="curve" smooth="yes"/>
      <point x="404" y="100"/>
      <point x="359" y="64"/>
    </contour>
  </outline>
</glyph>
<glyph name="fiveguru" format="2">
  <advance width="551"/>
  <unicode hex="0A6B"/>
  <note>
fiveguru
</note>
  <outline>
    <contour>
      <point x="389" y="0" type="line"/>
      <point x="470" y="0" type="line"/>
      <point x="470" y="622" type="line"/>
      <point x="389" y="622" type="line"/>
      <point x="389" y="261" type="line"/>
      <point x="352" y="240"/>
      <point x="314" y="230"/>
      <point x="275" y="230" type="curve" smooth="yes"/>
      <point x="211" y="230"/>
      <point x="168" y="263"/>
      <point x="128" y="343" type="curve"/>
      <point x="167" y="380"/>
      <point x="183" y="422"/>
      <point x="183" y="477" type="curve" smooth="yes"/>
      <point x="183" y="525"/>
      <point x="168" y="577"/>
      <point x="139" y="632" type="curve"/>
      <point x="64" y="604" type="line"/>
      <point x="93" y="552"/>
      <point x="104" y="515"/>
      <point x="104" y="474" type="curve" smooth="yes"/>
      <point x="104" y="425"/>
      <point x="83" y="389"/>
      <point x="34" y="349" type="curve"/>
      <point x="86" y="221"/>
      <point x="166" y="157"/>
      <point x="273" y="157" type="curve" smooth="yes"/>
      <point x="315" y="157"/>
      <point x="354" y="164"/>
      <point x="389" y="179" type="curve"/>
    </contour>
  </outline>
</glyph>
<glyph name="sixguru" format="2">
  <advance width="551"/>
  <unicode hex="0A6C"/>
  <note>
sixguru
</note>
  <outline>
    <contour>
      <point x="300" y="-9" type="curve" smooth="yes"/>
      <point x="376" y="-9"/>
      <point x="446" y="5"/>
      <point x="510" y="32" type="curve"/>
      <point x="481" y="97" type="line"/>
      <point x="431" y="74"/>
      <point x="374" y="63"/>
      <point x="309" y="63" type="curve" smooth="yes"/>
      <point x="204" y="63"/>
      <point x="155" y="93"/>
      <point x="155" y="158" type="curve" smooth="yes"/>
      <point x="155" y="201"/>
      <point x="186" y="233"/>
      <point x="239" y="250" type="curve"/>
      <point x="286" y="234"/>
      <point x="331" y="226"/>
      <point x="373" y="226" type="curve" smooth="yes"/>
      <point x="422" y="226"/>
      <point x="453" y="243"/>
      <point x="453" y="276" type="curve" smooth="yes"/>
      <point x="453" y="313"/>
      <point x="417" y="333"/>
      <point x="348" y="333" type="curve" smooth="yes"/>
      <point x="311" y="333"/>
      <point x="276" y="329"/>
      <point x="241" y="320" type="curve"/>
      <point x="186" y="333"/>
      <point x="155" y="357"/>
      <point x="155" y="402" type="curve" smooth="yes"/>
      <point x="155" y="459"/>
      <point x="219" y="492"/>
      <point x="336" y="492" type="curve"/>
      <point x="362" y="460"/>
      <point x="394" y="444"/>
      <point x="432" y="444" type="curve" smooth="yes"/>
      <point x="475" y="444"/>
      <point x="500" y="462"/>
      <point x="500" y="493" type="curve" smooth="yes"/>
      <point x="500" y="530"/>
      <point x="463" y="552"/>
      <point x="390" y="559" type="curve"/>
      <point x="367" y="585"/>
      <point x="356" y="614"/>
      <point x="356" y="647" type="curve" smooth="yes"/>
      <point x="356" y="692"/>
      <point x="385" y="717"/>
      <point x="440" y="717" type="curve" smooth="yes"/>
      <point x="458" y="717"/>
      <point x="473" y="716"/>
      <point x="486" y="714" type="curve"/>
      <point x="496" y="783" type="line"/>
      <point x="476" y="786"/>
      <point x="455" y="787"/>
      <point x="434" y="787" type="curve" smooth="yes"/>
      <point x="333" y="787"/>
      <point x="276" y="735"/>
      <point x="276" y="659" type="curve" smooth="yes"/>
      <point x="276" y="624"/>
      <point x="285" y="591"/>
      <point x="304" y="561" type="curve"/>
      <point x="157" y="553"/>
      <point x="73" y="496"/>
      <point x="73" y="405" type="curve" smooth="yes"/>
      <point x="73" y="352"/>
      <point x="100" y="312"/>
      <point x="156" y="285" type="curve"/>
      <point x="101" y="250"/>
      <point x="74" y="207"/>
      <point x="74" y="156" type="curve" smooth="yes"/>
      <point x="74" y="51"/>
      <point x="153" y="-9"/>
    </contour>
  </outline>
</glyph>
<glyph name="sevenguru" format="2">
  <advance width="551"/>
  <unicode hex="0A6D"/>
  <note>
sevenguru
</note>
  <outline>
    <contour>
      <point x="30" y="-9" type="line"/>
      <point x="285" y="7"/>
      <point x="503" y="137"/>
      <point x="503" y="369" type="curve" smooth="yes"/>
      <point x="503" y="529"/>
      <point x="415" y="632"/>
      <point x="269" y="632" type="curve" smooth="yes"/>
      <point x="155" y="632"/>
      <point x="73" y="564"/>
      <point x="73" y="469" type="curve" smooth="yes"/>
      <point x="73" y="412"/>
      <point x="93" y="366"/>
      <point x="134" y="319" type="curve"/>
      <point x="202" y="355" type="line"/>
      <point x="169" y="387"/>
      <point x="153" y="422"/>
      <point x="153" y="461" type="curve" smooth="yes"/>
      <point x="153" y="524"/>
      <point x="196" y="560"/>
      <point x="268" y="560" type="curve" smooth="yes"/>
      <point x="364" y="560"/>
      <point x="421" y="484"/>
      <point x="421" y="368" type="curve" smooth="yes"/>
      <point x="421" y="200"/>
      <point x="275" y="84"/>
      <point x="30" y="64" type="curve"/>
    </contour>
  </outline>
</glyph>
<glyph name="eightguru" format="2">
  <advance width="551"/>
  <unicode hex="0A6E"/>
  <note>
eightguru
</note>
  <outline>
    <contour>
      <point x="415" y="0" type="curve" smooth="yes"/>
      <point x="455" y="0"/>
      <point x="488" y="2"/>
      <point x="513" y="5" type="curve"/>
      <point x="506" y="78" type="line"/>
      <point x="479" y="74"/>
      <point x="454" y="72"/>
      <point x="431" y="72" type="curve" smooth="yes"/>
      <point x="247" y="72"/>
      <point x="190" y="133"/>
      <point x="190" y="314" type="curve" smooth="yes"/>
      <point x="190" y="476" type="line"/>
      <point x="510" y="476" type="line"/>
      <point x="510" y="547" type="line"/>
      <point x="190" y="547" type="line"/>
      <point x="190" y="577" type="line" smooth="yes"/>
      <point x="190" y="613"/>
      <point x="175" y="632"/>
      <point x="147" y="632" type="curve" smooth="yes"/>
      <point x="132" y="632"/>
      <point x="116" y="626"/>
      <point x="99" y="614" type="curve" smooth="yes"/>
      <point x="64" y="590"/>
      <point x="36" y="547"/>
      <point x="36" y="514" type="curve" smooth="yes"/>
      <point x="36" y="490"/>
      <point x="54" y="476"/>
      <point x="87" y="476" type="curve" smooth="yes"/>
      <point x="110" y="476" type="line"/>
      <point x="110" y="297" type="line" smooth="yes"/>
      <point x="110" y="86"/>
      <point x="204" y="0"/>
    </contour>
  </outline>
</glyph>
<glyph name="nineguru" format="2">
  <advance width="551"/>
  <unicode hex="0A6F"/>
  <note>
nineguru
</note>
  <outline>
    <contour>
      <point x="415" y="0" type="curve" smooth="yes"/>
      <point x="455" y="0"/>
      <point x="488" y="2"/>
      <point x="513" y="5" type="curve"/>
      <point x="506" y="78" type="line"/>
      <point x="479" y="74"/>
      <point x="454" y="72"/>
      <point x="431" y="72" type="curve" smooth="yes"/>
      <point x="247" y="72"/>
      <point x="190" y="133"/>
      <point x="190" y="314" type="curve" smooth="yes"/>
      <point x="190" y="476" type="line"/>
      <point x="510" y="476" type="line"/>
      <point x="510" y="547" type="line"/>
      <point x="478" y="547" type="line"/>
      <point x="448" y="576"/>
      <point x="433" y="610"/>
      <point x="433" y="647" type="curve" smooth="yes"/>
      <point x="433" y="692"/>
      <point x="462" y="717"/>
      <point x="517" y="717" type="curve" smooth="yes"/>
      <point x="534" y="717"/>
      <point x="549" y="716"/>
      <point x="562" y="714" type="curve"/>
      <point x="572" y="783" type="line"/>
      <point x="552" y="786"/>
      <point x="531" y="787"/>
      <point x="510" y="787" type="curve" smooth="yes"/>
      <point x="410" y="787"/>
      <point x="352" y="735"/>
      <point x="352" y="659" type="curve" smooth="yes"/>
      <point x="352" y="619"/>
      <point x="364" y="582"/>
      <point x="389" y="547" type="curve"/>
      <point x="190" y="547" type="line"/>
      <point x="190" y="577" type="line" smooth="yes"/>
      <point x="190" y="613"/>
      <point x="175" y="632"/>
      <point x="147" y="632" type="curve" smooth="yes"/>
      <point x="98" y="632"/>
      <point x="36" y="564"/>
      <point x="36" y="514" type="curve" smooth="yes"/>
      <point x="36" y="490"/>
      <point x="54" y="476"/>
      <point x="87" y="476" type="curve" smooth="yes"/>
      <point x="110" y="476" type="line"/>
      <point x="110" y="297" type="line" smooth="yes"/>
      <point x="110" y="86"/>
      <point x="204" y="0"/>
    </contour>
  </outline>
</glyph>
<glyph name="u11280" format="2">
  <advance width="715"/>
  <unicode hex="11280"/>
  <outline>
    <contour>
      <point x="77" y="0" type="line"/>
      <point x="163" y="0" type="line"/>
      <point x="191" y="222" type="line" smooth="yes"/>
      <point x="214" y="401"/>
      <point x="306" y="430"/>
      <point x="359" y="430" type="curve" smooth="yes"/>
      <point x="407" y="430"/>
      <point x="472" y="408"/>
      <point x="472" y="283" type="curve" smooth="yes"/>
      <point x="472" y="255"/>
      <point x="470" y="221"/>
      <point x="465" y="181" type="curve" smooth="yes"/>
      <point x="442" y="0" type="line"/>
      <point x="528" y="0" type="line"/>
      <point x="572" y="339" type="line" smooth="yes"/>
      <point x="594" y="509"/>
      <point x="622" y="640"/>
      <point x="704" y="640" type="curve" smooth="yes"/>
      <point x="713" y="640"/>
      <point x="722" y="639"/>
      <point x="731" y="637" type="curve"/>
      <point x="745" y="714" type="line"/>
      <point x="735" y="719"/>
      <point x="723" y="720"/>
      <point x="711" y="720" type="curve" smooth="yes"/>
      <point x="598" y="720"/>
      <point x="529" y="627"/>
      <point x="503" y="450" type="curve"/>
      <point x="475" y="486"/>
      <point x="431" y="510"/>
      <point x="362" y="510" type="curve" smooth="yes"/>
      <point x="284" y="510"/>
      <point x="219" y="479"/>
      <point x="183" y="424" type="curve"/>
      <point x="171" y="477"/>
      <point x="128" y="520"/>
      <point x="69" y="536" type="curve"/>
      <point x="50" y="456" type="line"/>
      <point x="86" y="441"/>
      <point x="115" y="409"/>
      <point x="115" y="351" type="curve" smooth="yes"/>
      <point x="115" y="333"/>
      <point x="114" y="301"/>
      <point x="102" y="206" type="curve" smooth="yes"/>
    </contour>
  </outline>
</glyph>
<glyph name="u11281" format="2">
  <advance width="476"/>
  <unicode hex="11281"/>
  <outline>
    <contour>
      <point x="246" y="-25" type="curve" smooth="yes"/>
      <point x="362" y="-25"/>
      <point x="433" y="71"/>
      <point x="433" y="179" type="curve" smooth="yes"/>
      <point x="433" y="239"/>
      <point x="416" y="305"/>
      <point x="371" y="367" type="curve"/>
      <point x="299" y="321" type="line"/>
      <point x="328" y="281"/>
      <point x="345" y="229"/>
      <point x="345" y="182" type="curve" smooth="yes"/>
      <point x="345" y="119"/>
      <point x="314" y="55"/>
      <point x="241" y="55" type="curve" smooth="yes"/>
      <point x="163" y="55"/>
      <point x="118" y="139"/>
      <point x="118" y="242" type="curve" smooth="yes"/>
      <point x="118" y="412"/>
      <point x="226" y="641"/>
      <point x="446" y="641" type="curve" smooth="yes"/>
      <point x="458" y="641"/>
      <point x="471" y="640"/>
      <point x="484" y="639" type="curve"/>
      <point x="496" y="718" type="line"/>
      <point x="481" y="719"/>
      <point x="466" y="720"/>
      <point x="451" y="720" type="curve" smooth="yes"/>
      <point x="172" y="720"/>
      <point x="30" y="463"/>
      <point x="30" y="240" type="curve" smooth="yes"/>
      <point x="30" y="96"/>
      <point x="100" y="-25"/>
    </contour>
  </outline>
</glyph>
<glyph name="u11282" format="2">
  <advance width="653"/>
  <unicode hex="11282"/>
  <outline>
    <contour>
      <point x="369" y="-15" type="curve" smooth="yes"/>
      <point x="519" y="-15"/>
      <point x="613" y="60"/>
      <point x="613" y="155" type="curve" smooth="yes"/>
      <point x="613" y="224"/>
      <point x="570" y="262"/>
      <point x="514" y="283" type="curve"/>
      <point x="554" y="303"/>
      <point x="587" y="336"/>
      <point x="587" y="390" type="curve" smooth="yes"/>
      <point x="587" y="459"/>
      <point x="527" y="519"/>
      <point x="410" y="519" type="curve" smooth="yes"/>
      <point x="364" y="519"/>
      <point x="321" y="513"/>
      <point x="277" y="498" type="curve"/>
      <point x="299" y="426" type="line"/>
      <point x="328" y="437"/>
      <point x="363" y="445"/>
      <point x="405" y="445" type="curve" smooth="yes"/>
      <point x="476" y="445"/>
      <point x="499" y="409"/>
      <point x="499" y="384" type="curve" smooth="yes"/>
      <point x="499" y="308"/>
      <point x="402" y="306"/>
      <point x="351" y="306" type="curve"/>
      <point x="351" y="233" type="line"/>
      <point x="364" y="234"/>
      <point x="379" y="234"/>
      <point x="394" y="234" type="curve" smooth="yes"/>
      <point x="450" y="234"/>
      <point x="525" y="225"/>
      <point x="525" y="162" type="curve" smooth="yes"/>
      <point x="525" y="116"/>
      <point x="481" y="65"/>
      <point x="352" y="65" type="curve" smooth="yes"/>
      <point x="187" y="65"/>
      <point x="118" y="185"/>
      <point x="118" y="311" type="curve" smooth="yes"/>
      <point x="118" y="484"/>
      <point x="238" y="640"/>
      <point x="440" y="640" type="curve" smooth="yes"/>
      <point x="472" y="640"/>
      <point x="495" y="638"/>
      <point x="506" y="637" type="curve"/>
      <point x="523" y="714" type="line"/>
      <point x="503" y="718"/>
      <point x="471" y="720"/>
      <point x="442" y="720" type="curve" smooth="yes"/>
      <point x="215" y="720"/>
      <point x="30" y="560"/>
      <point x="30" y="311" type="curve" smooth="yes"/>
      <point x="30" y="126"/>
      <point x="143" y="-15"/>
    </contour>
  </outline>
</glyph>
<glyph name="u11283" format="2">
  <advance width="737"/>
  <unicode hex="11283"/>
  <outline>
    <contour>
      <point x="679" y="205" type="line"/>
      <point x="690" y="245"/>
      <point x="697" y="289"/>
      <point x="697" y="333" type="curve" smooth="yes"/>
      <point x="697" y="481"/>
      <point x="620" y="630"/>
      <point x="369" y="630" type="curve" smooth="yes"/>
      <point x="127" y="630"/>
      <point x="40" y="479"/>
      <point x="40" y="318" type="curve" smooth="yes"/>
      <point x="40" y="281"/>
      <point x="45" y="243"/>
      <point x="53" y="207" type="curve"/>
      <point x="140" y="220" type="line"/>
      <point x="132" y="252"/>
      <point x="128" y="285"/>
      <point x="128" y="318" type="curve" smooth="yes"/>
      <point x="128" y="439"/>
      <point x="189" y="550"/>
      <point x="369" y="550" type="curve" smooth="yes"/>
      <point x="539" y="550"/>
      <point x="609" y="449"/>
      <point x="609" y="331" type="curve" smooth="yes"/>
      <point x="609" y="295"/>
      <point x="604" y="257"/>
      <point x="592" y="220" type="curve"/>
    </contour>
  </outline>
</glyph>
<glyph name="u11284" format="2">
  <advance width="518"/>
  <unicode hex="11284"/>
  <outline>
    <contour>
      <point x="471" y="-15" type="curve" smooth="yes"/>
      <point x="486" y="-15" type="line"/>
      <point x="498" y="65" type="line"/>
      <point x="472" y="65" type="line" smooth="yes"/>
      <point x="402" y="65"/>
      <point x="348" y="76"/>
      <point x="302" y="90" type="curve"/>
      <point x="405" y="161"/>
      <point x="468" y="264"/>
      <point x="468" y="390" type="curve" smooth="yes"/>
      <point x="468" y="508"/>
      <point x="400" y="630"/>
      <point x="201" y="630" type="curve" smooth="yes"/>
      <point x="124" y="630"/>
      <point x="61" y="616"/>
      <point x="25" y="606" type="curve"/>
      <point x="47" y="529" type="line"/>
      <point x="91" y="543"/>
      <point x="142" y="550"/>
      <point x="195" y="550" type="curve" smooth="yes"/>
      <point x="342" y="550"/>
      <point x="380" y="475"/>
      <point x="380" y="385" type="curve" smooth="yes"/>
      <point x="380" y="276"/>
      <point x="328" y="186"/>
      <point x="209" y="120" type="curve"/>
      <point x="174" y="132"/>
      <point x="140" y="141"/>
      <point x="102" y="141" type="curve" smooth="yes"/>
      <point x="48" y="141"/>
      <point x="20" y="106"/>
      <point x="20" y="71" type="curve" smooth="yes"/>
      <point x="20" y="39"/>
      <point x="45" y="7"/>
      <point x="96" y="7" type="curve" smooth="yes"/>
      <point x="137" y="7"/>
      <point x="186" y="24"/>
      <point x="210" y="38" type="curve"/>
      <point x="269" y="12"/>
      <point x="379" y="-15"/>
    </contour>
  </outline>
</glyph>
<glyph name="u11285" format="2">
  <advance width="639"/>
  <unicode hex="11285"/>
  <outline>
    <contour>
      <point x="331" y="-15" type="curve" smooth="yes"/>
      <point x="389" y="-15"/>
      <point x="431" y="8"/>
      <point x="458" y="60" type="curve"/>
      <point x="482" y="12"/>
      <point x="524" y="-15"/>
      <point x="584" y="-15" type="curve" smooth="yes"/>
      <point x="596" y="-15"/>
      <point x="615" y="-14"/>
      <point x="626" y="-10" type="curve"/>
      <point x="629" y="68" type="line"/>
      <point x="620" y="66"/>
      <point x="605" y="65"/>
      <point x="596" y="65" type="curve" smooth="yes"/>
      <point x="523" y="65"/>
      <point x="498" y="137"/>
      <point x="498" y="194" type="curve" smooth="yes"/>
      <point x="498" y="212"/>
      <point x="498" y="240"/>
      <point x="499" y="260" type="curve" smooth="yes"/>
      <point x="511" y="538" type="line"/>
      <point x="575" y="535" type="line"/>
      <point x="581" y="614" type="line"/>
      <point x="250" y="630" type="line"/>
      <point x="244" y="553" type="line"/>
      <point x="421" y="543" type="line"/>
      <point x="411" y="271" type="line" smooth="yes"/>
      <point x="406" y="122"/>
      <point x="371" y="65"/>
      <point x="326" y="65" type="curve" smooth="yes"/>
      <point x="270" y="65"/>
      <point x="162" y="161"/>
      <point x="70" y="279" type="curve"/>
      <point x="0" y="229" type="line"/>
      <point x="134" y="57"/>
      <point x="250" y="-15"/>
    </contour>
  </outline>
</glyph>
<glyph name="u11286" format="2">
  <advance width="576"/>
  <unicode hex="11286"/>
  <outline>
    <contour>
      <point x="531" y="-15" type="curve"/>
      <point x="556" y="63" type="line"/>
      <point x="544" y="66" type="line" smooth="yes"/>
      <point x="465" y="86"/>
      <point x="454" y="91"/>
      <point x="454" y="309" type="curve" smooth="yes"/>
      <point x="454" y="408" type="line" smooth="yes"/>
      <point x="454" y="505"/>
      <point x="450" y="562"/>
      <point x="432" y="630" type="curve"/>
      <point x="338" y="640" type="line"/>
      <point x="363" y="548"/>
      <point x="366" y="450"/>
      <point x="366" y="409" type="curve" smooth="yes"/>
      <point x="366" y="254" type="line" smooth="yes"/>
      <point x="366" y="25"/>
      <point x="422" y="8"/>
    </contour>
    <contour>
      <point x="50" y="243" type="line"/>
      <point x="204" y="245"/>
      <point x="275" y="320"/>
      <point x="275" y="453" type="curve" smooth="yes"/>
      <point x="275" y="533"/>
      <point x="216" y="616"/>
      <point x="82" y="640" type="curve"/>
      <point x="56" y="563" type="line"/>
      <point x="142" y="552"/>
      <point x="187" y="504"/>
      <point x="187" y="448" type="curve" smooth="yes"/>
      <point x="187" y="376"/>
      <point x="148" y="324"/>
      <point x="52" y="323" type="curve"/>
    </contour>
  </outline>
</glyph>
<glyph name="u11288" format="2">
  <advance width="769"/>
  <unicode hex="11288"/>
  <outline>
    <contour>
      <point x="724" y="-15" type="curve"/>
      <point x="749" y="63" type="line"/>
      <point x="737" y="66" type="line" smooth="yes"/>
      <point x="655" y="86"/>
      <point x="647" y="93"/>
      <point x="647" y="309" type="curve" smooth="yes"/>
      <point x="647" y="385" type="line" smooth="yes"/>
      <point x="647" y="464"/>
      <point x="654" y="555"/>
      <point x="661" y="630" type="curve"/>
      <point x="574" y="640" type="line"/>
      <point x="568" y="598"/>
      <point x="563" y="549"/>
      <point x="561" y="505" type="curve"/>
      <point x="541" y="432"/>
      <point x="512" y="385"/>
      <point x="460" y="385" type="curve" smooth="yes"/>
      <point x="411" y="385"/>
      <point x="386" y="422"/>
      <point x="386" y="501" type="curve" smooth="yes"/>
      <point x="386" y="540"/>
      <point x="395" y="584"/>
      <point x="402" y="617" type="curve"/>
      <point x="317" y="640" type="line"/>
      <point x="310" y="616"/>
      <point x="305" y="588"/>
      <point x="301" y="559" type="curve"/>
      <point x="280" y="464"/>
      <point x="251" y="385"/>
      <point x="192" y="385" type="curve" smooth="yes"/>
      <point x="143" y="385"/>
      <point x="118" y="422"/>
      <point x="118" y="501" type="curve" smooth="yes"/>
      <point x="118" y="540"/>
      <point x="127" y="584"/>
      <point x="134" y="617" type="curve"/>
      <point x="49" y="640" type="line"/>
      <point x="38" y="601"/>
      <point x="30" y="551"/>
      <point x="30" y="502" type="curve" smooth="yes"/>
      <point x="30" y="342"/>
      <point x="116" y="305"/>
      <point x="190" y="305" type="curve" smooth="yes"/>
      <point x="250" y="305"/>
      <point x="292" y="333"/>
      <point x="323" y="380" type="curve"/>
      <point x="354" y="321"/>
      <point x="408" y="305"/>
      <point x="458" y="305" type="curve" smooth="yes"/>
      <point x="500" y="305"/>
      <point x="533" y="319"/>
      <point x="559" y="345" type="curve"/>
      <point x="559" y="254" type="line" smooth="yes"/>
      <point x="559" y="25"/>
      <point x="615" y="8"/>
    </contour>
  </outline>
</glyph>
<glyph name="u1128A" format="2">
  <advance width="831"/>
  <unicode hex="1128A"/>
  <outline>
    <contour>
      <point x="184" y="-15" type="curve" smooth="yes"/>
      <point x="310" y="-15"/>
      <point x="379" y="76"/>
      <point x="432" y="204" type="curve" smooth="yes"/>
      <point x="510" y="392" type="line" smooth="yes"/>
      <point x="548" y="484"/>
      <point x="600" y="550"/>
      <point x="689" y="550" type="curve" smooth="yes"/>
      <point x="737" y="550"/>
      <point x="783" y="543"/>
      <point x="829" y="531" type="curve"/>
      <point x="851" y="609" type="line"/>
      <point x="794" y="622"/>
      <point x="741" y="630"/>
      <point x="684" y="630" type="curve" smooth="yes"/>
      <point x="553" y="630"/>
      <point x="479" y="552"/>
      <point x="428" y="427" type="curve" smooth="yes"/>
      <point x="361" y="264" type="line" smooth="yes"/>
      <point x="308" y="136"/>
      <point x="263" y="65"/>
      <point x="184" y="65" type="curve" smooth="yes"/>
      <point x="133" y="65"/>
      <point x="108" y="100"/>
      <point x="108" y="145" type="curve" smooth="yes"/>
      <point x="108" y="180"/>
      <point x="126" y="226"/>
      <point x="170" y="255" type="curve"/>
      <point x="121" y="320" type="line"/>
      <point x="53" y="280"/>
      <point x="20" y="207"/>
      <point x="20" y="140" type="curve" smooth="yes"/>
      <point x="20" y="62"/>
      <point x="69" y="-15"/>
    </contour>
  </outline>
</glyph>
<glyph name="u1128B" format="2">
  <advance width="628"/>
  <unicode hex="1128B"/>
  <outline>
    <contour>
      <point x="272" y="-15" type="curve" smooth="yes"/>
      <point x="354" y="-15"/>
      <point x="438" y="31"/>
      <point x="438" y="143" type="curve" smooth="yes"/>
      <point x="438" y="206"/>
      <point x="410" y="271"/>
      <point x="328" y="354" type="curve"/>
      <point x="402" y="418"/>
      <point x="503" y="489"/>
      <point x="628" y="565" type="curve"/>
      <point x="585" y="634" type="line"/>
      <point x="444" y="547"/>
      <point x="341" y="474"/>
      <point x="268" y="410" type="curve"/>
      <point x="212" y="458"/>
      <point x="139" y="512"/>
      <point x="46" y="575" type="curve"/>
      <point x="0" y="508" type="line"/>
      <point x="84" y="452"/>
      <point x="154" y="401"/>
      <point x="209" y="354" type="curve"/>
      <point x="129" y="271"/>
      <point x="102" y="205"/>
      <point x="102" y="143" type="curve" smooth="yes"/>
      <point x="102" y="30"/>
      <point x="188" y="-15"/>
    </contour>
    <contour>
      <point x="270" y="65" type="curve" smooth="yes"/>
      <point x="229" y="65"/>
      <point x="190" y="91"/>
      <point x="190" y="147" type="curve" smooth="yes"/>
      <point x="190" y="191"/>
      <point x="217" y="241"/>
      <point x="269" y="297" type="curve"/>
      <point x="322" y="242"/>
      <point x="350" y="193"/>
      <point x="350" y="152" type="curve" smooth="yes"/>
      <point x="350" y="92"/>
      <point x="311" y="65"/>
    </contour>
    <contour>
      <point x="156" y="562" type="line"/>
      <point x="208" y="611"/>
      <point x="269" y="661"/>
      <point x="340" y="712" type="curve"/>
      <point x="288" y="774" type="line"/>
      <point x="216" y="720"/>
      <point x="157" y="669"/>
      <point x="100" y="616" type="curve"/>
    </contour>
    <contour>
      <point x="270" y="486" type="line"/>
      <point x="311" y="526"/>
      <point x="362" y="568"/>
      <point x="424" y="613" type="curve"/>
      <point x="372" y="675" type="line"/>
      <point x="310" y="631"/>
      <point x="257" y="587"/>
      <point x="211" y="542" type="curve"/>
    </contour>
  </outline>
</glyph>
<glyph name="u1128C" format="2">
  <advance width="715"/>
  <unicode hex="1128C"/>
  <outline>
    <contour>
      <point x="190" y="-15" type="curve" smooth="yes"/>
      <point x="317" y="-15"/>
      <point x="430" y="45"/>
      <point x="430" y="188" type="curve" smooth="yes"/>
      <point x="430" y="263"/>
      <point x="385" y="308"/>
      <point x="321" y="333" type="curve"/>
      <point x="373" y="356"/>
      <point x="418" y="396"/>
      <point x="418" y="468" type="curve" smooth="yes"/>
      <point x="418" y="484"/>
      <point x="416" y="499"/>
      <point x="411" y="514" type="curve"/>
      <point x="427" y="515"/>
      <point x="430" y="515"/>
      <point x="434" y="515" type="curve" smooth="yes"/>
      <point x="460" y="515"/>
      <point x="485" y="501"/>
      <point x="488" y="455" type="curve" smooth="yes"/>
      <point x="501" y="254" type="line" smooth="yes"/>
      <point x="514" y="60"/>
      <point x="538" y="13"/>
      <point x="651" y="-11" type="curve" smooth="yes"/>
      <point x="670" y="-15" type="line"/>
      <point x="695" y="63" type="line"/>
      <point x="672" y="69" type="line" smooth="yes"/>
      <point x="610" y="85"/>
      <point x="595" y="115"/>
      <point x="587" y="265" type="curve" smooth="yes"/>
      <point x="578" y="440" type="line" smooth="yes"/>
      <point x="572" y="560"/>
      <point x="504" y="595"/>
      <point x="439" y="595" type="curve" smooth="yes"/>
      <point x="410" y="595"/>
      <point x="383" y="594"/>
      <point x="355" y="590" type="curve"/>
      <point x="320" y="615"/>
      <point x="269" y="630"/>
      <point x="203" y="630" type="curve" smooth="yes"/>
      <point x="163" y="630"/>
      <point x="112" y="624"/>
      <point x="63" y="615" type="curve"/>
      <point x="81" y="535" type="line"/>
      <point x="115" y="543"/>
      <point x="157" y="550"/>
      <point x="203" y="550" type="curve" smooth="yes"/>
      <point x="303" y="550"/>
      <point x="330" y="505"/>
      <point x="330" y="463" type="curve" smooth="yes"/>
      <point x="330" y="377"/>
      <point x="207" y="360"/>
      <point x="149" y="360" type="curve"/>
      <point x="149" y="288" type="line"/>
      <point x="258" y="288"/>
      <point x="342" y="253"/>
      <point x="342" y="177" type="curve" smooth="yes"/>
      <point x="342" y="98"/>
      <point x="267" y="65"/>
      <point x="191" y="65" type="curve" smooth="yes"/>
      <point x="124" y="65"/>
      <point x="70" y="92"/>
      <point x="27" y="122" type="curve"/>
      <point x="-20" y="55" type="line"/>
      <point x="42" y="8"/>
      <point x="118" y="-15"/>
    </contour>
  </outline>
</glyph>
<glyph name="u1128D" format="2">
  <advance width="948"/>
  <unicode hex="1128D"/>
  <outline>
    <contour>
      <point x="473" y="-55" type="curve"/>
      <point x="516" y="6" type="line"/>
      <point x="468" y="38"/>
      <point x="392" y="70"/>
      <point x="311" y="99" type="curve"/>
      <point x="381" y="168"/>
      <point x="427" y="293"/>
      <point x="427" y="383" type="curve" smooth="yes"/>
      <point x="427" y="415"/>
      <point x="422" y="447"/>
      <point x="413" y="477" type="curve"/>
      <point x="468" y="446"/>
      <point x="509" y="391"/>
      <point x="524" y="371" type="curve" smooth="yes"/>
      <point x="544" y="344" type="line"/>
      <point x="523" y="327" type="line" smooth="yes"/>
      <point x="481" y="293"/>
      <point x="433" y="239"/>
      <point x="433" y="179" type="curve" smooth="yes"/>
      <point x="433" y="111"/>
      <point x="487" y="56"/>
      <point x="576" y="56" type="curve" smooth="yes"/>
      <point x="676" y="56"/>
      <point x="730" y="113"/>
      <point x="730" y="190" type="curve" smooth="yes"/>
      <point x="730" y="232"/>
      <point x="704" y="270"/>
      <point x="686" y="295" type="curve" smooth="yes"/>
      <point x="658" y="333" type="line"/>
      <point x="781" y="433"/>
      <point x="882" y="503"/>
      <point x="948" y="542" type="curve"/>
      <point x="905" y="609" type="line"/>
      <point x="803" y="553"/>
      <point x="694" y="466"/>
      <point x="607" y="394" type="curve"/>
      <point x="568" y="440" type="line" smooth="yes"/>
      <point x="494" y="529"/>
      <point x="413" y="570"/>
      <point x="344" y="583" type="curve"/>
      <point x="308" y="612"/>
      <point x="260" y="630"/>
      <point x="197" y="630" type="curve" smooth="yes"/>
      <point x="128" y="630"/>
      <point x="61" y="605"/>
      <point x="20" y="579" type="curve"/>
      <point x="47" y="506" type="line"/>
      <point x="68" y="519"/>
      <point x="122" y="550"/>
      <point x="187" y="550" type="curve" smooth="yes"/>
      <point x="291" y="550"/>
      <point x="339" y="472"/>
      <point x="339" y="382" type="curve" smooth="yes"/>
      <point x="339" y="249"/>
      <point x="274" y="169"/>
      <point x="236" y="134" type="curve"/>
      <point x="212" y="145"/>
      <point x="182" y="153"/>
      <point x="151" y="153" type="curve" smooth="yes"/>
      <point x="94" y="153"/>
      <point x="56" y="121"/>
      <point x="56" y="82" type="curve" smooth="yes"/>
      <point x="56" y="50"/>
      <point x="81" y="16"/>
      <point x="150" y="16" type="curve" smooth="yes"/>
      <point x="184" y="16"/>
      <point x="222" y="29"/>
      <point x="251" y="44" type="curve"/>
      <point x="345" y="12"/>
      <point x="408" y="-18"/>
    </contour>
    <contour>
      <point x="580" y="136" type="curve" smooth="yes"/>
      <point x="533" y="136"/>
      <point x="521" y="163"/>
      <point x="521" y="183" type="curve" smooth="yes"/>
      <point x="521" y="213"/>
      <point x="542" y="237"/>
      <point x="568" y="258" type="curve" smooth="yes"/>
      <point x="595" y="280" type="line"/>
      <point x="608" y="264" type="line" smooth="yes"/>
      <point x="622" y="246"/>
      <point x="641" y="219"/>
      <point x="641" y="194" type="curve" smooth="yes"/>
      <point x="641" y="167"/>
      <point x="621" y="136"/>
    </contour>
  </outline>
</glyph>
<glyph name="u1128F" format="2">
  <advance width="679"/>
  <unicode hex="1128F"/>
  <outline>
    <contour>
      <point x="506" y="-28" type="curve"/>
      <point x="512" y="43" type="line"/>
      <point x="419" y="44"/>
      <point x="356" y="56"/>
      <point x="307" y="71" type="curve"/>
      <point x="352" y="103"/>
      <point x="387" y="150"/>
      <point x="387" y="216" type="curve" smooth="yes"/>
      <point x="387" y="284"/>
      <point x="341" y="327"/>
      <point x="276" y="353" type="curve"/>
      <point x="327" y="375"/>
      <point x="370" y="413"/>
      <point x="370" y="483" type="curve" smooth="yes"/>
      <point x="370" y="493"/>
      <point x="369" y="503"/>
      <point x="366" y="513" type="curve"/>
      <point x="380" y="515"/>
      <point x="391" y="515"/>
      <point x="401" y="515" type="curve" smooth="yes"/>
      <point x="429" y="515"/>
      <point x="454" y="501"/>
      <point x="457" y="455" type="curve" smooth="yes"/>
      <point x="465" y="337" type="line" smooth="yes"/>
      <point x="478" y="143"/>
      <point x="502" y="96"/>
      <point x="615" y="72" type="curve" smooth="yes"/>
      <point x="634" y="68" type="line"/>
      <point x="659" y="146" type="line"/>
      <point x="636" y="152" type="line" smooth="yes"/>
      <point x="574" y="168"/>
      <point x="558" y="198"/>
      <point x="551" y="348" type="curve" smooth="yes"/>
      <point x="547" y="440" type="line" smooth="yes"/>
      <point x="542" y="560"/>
      <point x="473" y="595"/>
      <point x="399" y="595" type="curve" smooth="yes"/>
      <point x="371" y="595"/>
      <point x="340" y="593"/>
      <point x="312" y="588" type="curve"/>
      <point x="277" y="613"/>
      <point x="225" y="630"/>
      <point x="155" y="630" type="curve" smooth="yes"/>
      <point x="119" y="630"/>
      <point x="74" y="625"/>
      <point x="30" y="618" type="curve"/>
      <point x="42" y="537" type="line"/>
      <point x="74" y="544"/>
      <point x="113" y="550"/>
      <point x="155" y="550" type="curve" smooth="yes"/>
      <point x="255" y="550"/>
      <point x="282" y="505"/>
      <point x="282" y="474" type="curve" smooth="yes"/>
      <point x="282" y="398"/>
      <point x="180" y="383"/>
      <point x="105" y="379" type="curve"/>
      <point x="105" y="309" type="line"/>
      <point x="232" y="309"/>
      <point x="299" y="276"/>
      <point x="299" y="207" type="curve" smooth="yes"/>
      <point x="299" y="160"/>
      <point x="266" y="123"/>
      <point x="226" y="103" type="curve"/>
      <point x="189" y="119"/>
      <point x="159" y="131"/>
      <point x="119" y="131" type="curve" smooth="yes"/>
      <point x="69" y="131"/>
      <point x="32" y="103"/>
      <point x="32" y="68" type="curve" smooth="yes"/>
      <point x="32" y="34"/>
      <point x="59" y="3"/>
      <point x="118" y="3" type="curve" smooth="yes"/>
      <point x="155" y="3"/>
      <point x="196" y="15"/>
      <point x="218" y="27" type="curve"/>
      <point x="270" y="-3"/>
      <point x="377" y="-25"/>
    </contour>
  </outline>
</glyph>
<glyph name="u11290" format="2">
  <advance width="574"/>
  <unicode hex="11290"/>
  <outline>
    <contour>
      <point x="335" y="-15" type="curve" smooth="yes"/>
      <point x="411" y="-15"/>
      <point x="513" y="8"/>
      <point x="554" y="34" type="curve"/>
      <point x="528" y="108" type="line"/>
      <point x="476" y="80"/>
      <point x="401" y="65"/>
      <point x="336" y="65" type="curve" smooth="yes"/>
      <point x="219" y="65"/>
      <point x="118" y="132"/>
      <point x="118" y="261" type="curve" smooth="yes"/>
      <point x="118" y="427"/>
      <point x="253" y="536"/>
      <point x="403" y="543" type="curve"/>
      <point x="498" y="539" type="line"/>
      <point x="507" y="615" type="line"/>
      <point x="61" y="636" type="line"/>
      <point x="48" y="561" type="line"/>
      <point x="220" y="552" type="line"/>
      <point x="114" y="501"/>
      <point x="30" y="407"/>
      <point x="30" y="260" type="curve" smooth="yes"/>
      <point x="30" y="113"/>
      <point x="127" y="-15"/>
    </contour>
  </outline>
</glyph>
<glyph name="u11291" format="2">
  <advance width="559"/>
  <unicode hex="11291"/>
  <outline>
    <contour>
      <point x="300" y="-15" type="curve" smooth="yes"/>
      <point x="425" y="-15"/>
      <point x="529" y="57"/>
      <point x="529" y="191" type="curve" smooth="yes"/>
      <point x="529" y="262"/>
      <point x="486" y="341"/>
      <point x="383" y="341" type="curve" smooth="yes"/>
      <point x="270" y="341"/>
      <point x="228" y="255"/>
      <point x="228" y="169" type="curve" smooth="yes"/>
      <point x="228" y="133"/>
      <point x="233" y="101"/>
      <point x="243" y="72" type="curve"/>
      <point x="160" y="94"/>
      <point x="118" y="168"/>
      <point x="118" y="271" type="curve" smooth="yes"/>
      <point x="118" y="401"/>
      <point x="224" y="550"/>
      <point x="412" y="550" type="curve" smooth="yes"/>
      <point x="434" y="550"/>
      <point x="456" y="549"/>
      <point x="480" y="545" type="curve"/>
      <point x="495" y="621" type="line"/>
      <point x="465" y="627"/>
      <point x="436" y="630"/>
      <point x="407" y="630" type="curve" smooth="yes"/>
      <point x="200" y="630"/>
      <point x="30" y="476"/>
      <point x="30" y="264" type="curve" smooth="yes"/>
      <point x="30" y="118"/>
      <point x="111" y="-15"/>
    </contour>
    <contour>
      <point x="332" y="68" type="curve"/>
      <point x="323" y="97"/>
      <point x="317" y="132"/>
      <point x="317" y="165" type="curve" smooth="yes"/>
      <point x="317" y="218"/>
      <point x="335" y="261"/>
      <point x="385" y="261" type="curve" smooth="yes"/>
      <point x="424" y="261"/>
      <point x="441" y="224"/>
      <point x="441" y="186" type="curve" smooth="yes"/>
      <point x="441" y="113"/>
      <point x="395" y="78"/>
    </contour>
  </outline>
</glyph>
<glyph name="u11292" format="2">
  <advance width="808"/>
  <unicode hex="11292"/>
  <outline>
    <contour>
      <point x="274" y="-15" type="curve" smooth="yes"/>
      <point x="390" y="-15"/>
      <point x="423" y="87"/>
      <point x="462" y="210" type="curve" smooth="yes"/>
      <point x="523" y="404" type="line" smooth="yes"/>
      <point x="551" y="493"/>
      <point x="585" y="550"/>
      <point x="674" y="550" type="curve" smooth="yes"/>
      <point x="723" y="550"/>
      <point x="767" y="545"/>
      <point x="816" y="534" type="curve"/>
      <point x="828" y="612" type="line"/>
      <point x="767" y="625"/>
      <point x="716" y="630"/>
      <point x="673" y="630" type="curve" smooth="yes"/>
      <point x="549" y="630"/>
      <point x="483" y="569"/>
      <point x="438" y="427" type="curve" smooth="yes"/>
      <point x="384" y="255" type="line" smooth="yes"/>
      <point x="346" y="133"/>
      <point x="324" y="65"/>
      <point x="263" y="65" type="curve" smooth="yes"/>
      <point x="220" y="65"/>
      <point x="153" y="122"/>
      <point x="68" y="234" type="curve"/>
      <point x="0" y="180" type="line"/>
      <point x="107" y="41"/>
      <point x="174" y="-15"/>
    </contour>
  </outline>
</glyph>
<glyph name="u11293" format="2">
  <advance width="681"/>
  <unicode hex="11293"/>
  <outline>
    <contour>
      <point x="445" y="-15" type="line"/>
      <point x="486" y="8"/>
      <point x="641" y="106"/>
      <point x="641" y="300" type="curve" smooth="yes"/>
      <point x="641" y="426"/>
      <point x="562" y="630"/>
      <point x="302" y="630" type="curve" smooth="yes"/>
      <point x="162" y="630"/>
      <point x="69" y="566"/>
      <point x="20" y="509" type="curve"/>
      <point x="73" y="446" type="line"/>
      <point x="143" y="521"/>
      <point x="218" y="550"/>
      <point x="304" y="550" type="curve" smooth="yes"/>
      <point x="339" y="550"/>
      <point x="369" y="545"/>
      <point x="396" y="537" type="curve"/>
      <point x="173" y="355" type="line"/>
      <point x="227" y="291" type="line"/>
      <point x="468" y="498" type="line"/>
      <point x="492" y="479"/>
      <point x="510" y="455"/>
      <point x="523" y="430" type="curve"/>
      <point x="277" y="230" type="line"/>
      <point x="331" y="166" type="line"/>
      <point x="549" y="351" type="line"/>
      <point x="552" y="334"/>
      <point x="553" y="318"/>
      <point x="553" y="302" type="curve" smooth="yes"/>
      <point x="553" y="182"/>
      <point x="480" y="94"/>
      <point x="393" y="48" type="curve"/>
    </contour>
  </outline>
</glyph>
<glyph name="u11294" format="2">
  <advance width="736"/>
  <unicode hex="11294"/>
  <outline>
    <contour>
      <point x="380" y="-15" type="curve" smooth="yes"/>
      <point x="609" y="-15"/>
      <point x="696" y="148"/>
      <point x="696" y="337" type="curve" smooth="yes"/>
      <point x="696" y="446"/>
      <point x="647" y="540"/>
      <point x="526" y="540" type="curve" smooth="yes"/>
      <point x="423" y="540"/>
      <point x="365" y="457"/>
      <point x="365" y="369" type="curve" smooth="yes"/>
      <point x="365" y="260"/>
      <point x="445" y="179"/>
      <point x="562" y="146" type="curve"/>
      <point x="528" y="96"/>
      <point x="472" y="65"/>
      <point x="385" y="65" type="curve" smooth="yes"/>
      <point x="299" y="65"/>
      <point x="215" y="95"/>
      <point x="215" y="199" type="curve" smooth="yes"/>
      <point x="215" y="219"/>
      <point x="220" y="253"/>
      <point x="227" y="288" type="curve" smooth="yes"/>
      <point x="235" y="330"/>
      <point x="244" y="381"/>
      <point x="244" y="430" type="curve" smooth="yes"/>
      <point x="244" y="574"/>
      <point x="161" y="630"/>
      <point x="15" y="630" type="curve" smooth="yes"/>
      <point x="6" y="630"/>
      <point x="-3" y="630"/>
      <point x="-12" y="629" type="curve"/>
      <point x="-20" y="549" type="line"/>
      <point x="83" y="548"/>
      <point x="156" y="535"/>
      <point x="156" y="421" type="curve" smooth="yes"/>
      <point x="156" y="385"/>
      <point x="151" y="346"/>
      <point x="142" y="307" type="curve" smooth="yes"/>
      <point x="133" y="267"/>
      <point x="127" y="227"/>
      <point x="127" y="191" type="curve" smooth="yes"/>
      <point x="127" y="79"/>
      <point x="200" y="-15"/>
    </contour>
    <contour>
      <point x="142" y="307" type="move"/>
    </contour>
    <contour>
      <point x="594" y="217" type="curve"/>
      <point x="496" y="249"/>
      <point x="454" y="312"/>
      <point x="454" y="369" type="curve" smooth="yes"/>
      <point x="454" y="410"/>
      <point x="472" y="460"/>
      <point x="527" y="460" type="curve" smooth="yes"/>
      <point x="593" y="460"/>
      <point x="608" y="379"/>
      <point x="608" y="337" type="curve" smooth="yes"/>
      <point x="608" y="294"/>
      <point x="604" y="253"/>
    </contour>
  </outline>
</glyph>
<glyph name="u11295" format="2">
  <advance width="753"/>
  <unicode hex="11295"/>
  <outline>
    <contour>
      <point x="708" y="-15" type="curve"/>
      <point x="733" y="57" type="line"/>
      <point x="721" y="60" type="line" smooth="yes"/>
      <point x="645" y="79"/>
      <point x="631" y="88"/>
      <point x="631" y="309" type="curve" smooth="yes"/>
      <point x="631" y="408" type="line" smooth="yes"/>
      <point x="631" y="505"/>
      <point x="627" y="562"/>
      <point x="609" y="630" type="curve"/>
      <point x="515" y="640" type="line"/>
      <point x="540" y="548"/>
      <point x="543" y="450"/>
      <point x="543" y="409" type="curve" smooth="yes"/>
      <point x="543" y="254" type="line" smooth="yes"/>
      <point x="543" y="25"/>
      <point x="599" y="8"/>
    </contour>
    <contour>
      <point x="215" y="-19" type="curve"/>
      <point x="246" y="52" type="line"/>
      <point x="179" y="69"/>
      <point x="176" y="78"/>
      <point x="176" y="289" type="curve" smooth="yes"/>
      <point x="176" y="308" type="line" smooth="yes"/>
      <point x="176" y="405"/>
      <point x="172" y="462"/>
      <point x="154" y="530" type="curve"/>
      <point x="60" y="540" type="line"/>
      <point x="85" y="448"/>
      <point x="88" y="350"/>
      <point x="88" y="309" type="curve" smooth="yes"/>
      <point x="88" y="234" type="line" smooth="yes"/>
      <point x="88" y="25"/>
      <point x="126" y="1"/>
    </contour>
    <contour>
      <point x="215" y="-19" type="curve"/>
      <point x="246" y="52" type="line"/>
      <point x="179" y="69"/>
      <point x="176" y="78"/>
      <point x="176" y="289" type="curve" smooth="yes"/>
      <point x="176" y="308" type="line" smooth="yes"/>
      <point x="176" y="405"/>
      <point x="172" y="462"/>
      <point x="154" y="530" type="curve"/>
      <point x="60" y="540" type="line"/>
      <point x="85" y="448"/>
      <point x="88" y="350"/>
      <point x="88" y="309" type="curve" smooth="yes"/>
      <point x="88" y="234" type="line" smooth="yes"/>
      <point x="88" y="25"/>
      <point x="126" y="1"/>
    </contour>
    <contour>
      <point x="478" y="-15" type="curve"/>
      <point x="503" y="57" type="line"/>
      <point x="491" y="60" type="line" smooth="yes"/>
      <point x="415" y="79"/>
      <point x="401" y="88"/>
      <point x="401" y="309" type="curve" smooth="yes"/>
      <point x="401" y="408" type="line" smooth="yes"/>
      <point x="401" y="505"/>
      <point x="397" y="562"/>
      <point x="379" y="630" type="curve"/>
      <point x="285" y="640" type="line"/>
      <point x="310" y="548"/>
      <point x="313" y="450"/>
      <point x="313" y="409" type="curve" smooth="yes"/>
      <point x="313" y="254" type="line" smooth="yes"/>
      <point x="313" y="25"/>
      <point x="369" y="8"/>
    </contour>
  </outline>
</glyph>
<glyph name="u11296" format="2">
  <advance width="512"/>
  <unicode hex="11296"/>
  <outline>
    <contour>
      <point x="219" y="-15" type="curve" smooth="yes"/>
      <point x="380" y="-15"/>
      <point x="472" y="63"/>
      <point x="472" y="179" type="curve" smooth="yes"/>
      <point x="472" y="266"/>
      <point x="423" y="310"/>
      <point x="357" y="333" type="curve"/>
      <point x="407" y="357"/>
      <point x="450" y="398"/>
      <point x="450" y="468" type="curve" smooth="yes"/>
      <point x="450" y="556"/>
      <point x="383" y="630"/>
      <point x="235" y="630" type="curve" smooth="yes"/>
      <point x="180" y="630"/>
      <point x="103" y="621"/>
      <point x="40" y="600" type="curve"/>
      <point x="63" y="523" type="line"/>
      <point x="100" y="536"/>
      <point x="162" y="550"/>
      <point x="235" y="550" type="curve" smooth="yes"/>
      <point x="335" y="550"/>
      <point x="362" y="505"/>
      <point x="362" y="465" type="curve" smooth="yes"/>
      <point x="362" y="361"/>
      <point x="209" y="357"/>
      <point x="141" y="357" type="curve"/>
      <point x="141" y="279" type="line"/>
      <point x="155" y="280"/>
      <point x="180" y="280"/>
      <point x="193" y="280" type="curve" smooth="yes"/>
      <point x="310" y="280"/>
      <point x="384" y="255"/>
      <point x="384" y="179" type="curve" smooth="yes"/>
      <point x="384" y="106"/>
      <point x="318" y="65"/>
      <point x="220" y="65" type="curve" smooth="yes"/>
      <point x="166" y="65"/>
      <point x="101" y="74"/>
      <point x="34" y="87" type="curve"/>
      <point x="20" y="8" type="line"/>
      <point x="74" y="-4"/>
      <point x="148" y="-15"/>
    </contour>
  </outline>
</glyph>
<glyph name="u11297" format="2">
  <advance width="702"/>
  <unicode hex="11297"/>
  <outline>
    <contour>
      <point x="406" y="-19" type="line"/>
      <point x="453" y="1"/>
      <point x="513" y="56"/>
      <point x="513" y="134" type="curve" smooth="yes"/>
      <point x="513" y="173"/>
      <point x="498" y="210"/>
      <point x="467" y="239" type="curve"/>
      <point x="491" y="247"/>
      <point x="516" y="257"/>
      <point x="546" y="269" type="curve" smooth="yes"/>
      <point x="672" y="321" type="line"/>
      <point x="641" y="396" type="line"/>
      <point x="505" y="340" type="line" smooth="yes"/>
      <point x="428" y="308"/>
      <point x="369" y="286"/>
      <point x="325" y="286" type="curve" smooth="yes"/>
      <point x="278" y="286"/>
      <point x="244" y="303"/>
      <point x="244" y="346" type="curve" smooth="yes"/>
      <point x="244" y="391"/>
      <point x="275" y="422"/>
      <point x="388" y="471" type="curve" smooth="yes"/>
      <point x="584" y="556" type="line"/>
      <point x="553" y="630" type="line"/>
      <point x="352" y="544" type="line" smooth="yes"/>
      <point x="314" y="528"/>
      <point x="276" y="511"/>
      <point x="244" y="490" type="curve"/>
      <point x="222" y="559"/>
      <point x="160" y="630"/>
      <point x="37" y="630" type="curve" smooth="yes"/>
      <point x="25" y="630"/>
      <point x="12" y="630"/>
      <point x="-2" y="628" type="curve"/>
      <point x="-10" y="550" type="line"/>
      <point x="20" y="550"/>
      <point x="60" y="549"/>
      <point x="81" y="544" type="curve" smooth="yes"/>
      <point x="148" y="528"/>
      <point x="166" y="482"/>
      <point x="166" y="421" type="curve" smooth="yes"/>
      <point x="166" y="413"/>
      <point x="166" y="406"/>
      <point x="165" y="398" type="curve"/>
      <point x="159" y="382"/>
      <point x="156" y="364"/>
      <point x="156" y="341" type="curve" smooth="yes"/>
      <point x="156" y="244"/>
      <point x="237" y="206"/>
      <point x="322" y="206" type="curve" smooth="yes"/>
      <point x="337" y="206"/>
      <point x="353" y="207"/>
      <point x="369" y="210" type="curve"/>
      <point x="407" y="192"/>
      <point x="425" y="161"/>
      <point x="425" y="133" type="curve" smooth="yes"/>
      <point x="425" y="88"/>
      <point x="387" y="63"/>
      <point x="359" y="47" type="curve"/>
    </contour>
  </outline>
</glyph>
<glyph name="u11298" format="2">
  <advance width="686"/>
  <unicode hex="11298"/>
  <outline>
    <contour>
      <point x="509" y="-15" type="curve" smooth="yes"/>
      <point x="582" y="-15"/>
      <point x="642" y="25"/>
      <point x="686" y="94" type="curve"/>
      <point x="618" y="134" type="line"/>
      <point x="598" y="104"/>
      <point x="564" y="65"/>
      <point x="509" y="65" type="curve" smooth="yes"/>
      <point x="473" y="65"/>
      <point x="448" y="79"/>
      <point x="448" y="113" type="curve" smooth="yes"/>
      <point x="448" y="138"/>
      <point x="467" y="167"/>
      <point x="490" y="201" type="curve" smooth="yes"/>
      <point x="526" y="254"/>
      <point x="570" y="320"/>
      <point x="570" y="394" type="curve" smooth="yes"/>
      <point x="570" y="478"/>
      <point x="498" y="518"/>
      <point x="432" y="518" type="curve" smooth="yes"/>
      <point x="401" y="518"/>
      <point x="375" y="511"/>
      <point x="351" y="500" type="curve"/>
      <point x="345" y="573"/>
      <point x="289" y="630"/>
      <point x="208" y="630" type="curve" smooth="yes"/>
      <point x="118" y="630"/>
      <point x="46" y="566"/>
      <point x="10" y="500" type="curve"/>
      <point x="68" y="447" type="line"/>
      <point x="94" y="487"/>
      <point x="149" y="550"/>
      <point x="200" y="550" type="curve" smooth="yes"/>
      <point x="252" y="550"/>
      <point x="264" y="508"/>
      <point x="264" y="483" type="curve" smooth="yes"/>
      <point x="264" y="432"/>
      <point x="232" y="397"/>
      <point x="181" y="344" type="curve"/>
      <point x="236" y="292" type="line"/>
      <point x="261" y="312"/>
      <point x="287" y="338"/>
      <point x="309" y="366" type="curve" smooth="yes"/>
      <point x="339" y="404"/>
      <point x="379" y="438"/>
      <point x="425" y="438" type="curve" smooth="yes"/>
      <point x="457" y="438"/>
      <point x="483" y="421"/>
      <point x="483" y="383" type="curve" smooth="yes"/>
      <point x="483" y="347"/>
      <point x="464" y="315"/>
      <point x="426" y="261" type="curve" smooth="yes"/>
      <point x="394" y="215"/>
      <point x="361" y="168"/>
      <point x="361" y="109" type="curve" smooth="yes"/>
      <point x="361" y="35"/>
      <point x="425" y="-15"/>
    </contour>
    <contour>
      <point x="448" y="113" type="move"/>
    </contour>
  </outline>
</glyph>
<glyph name="u11299" format="2">
  <advance width="559"/>
  <unicode hex="11299"/>
  <outline>
    <contour>
      <point x="487" y="-29" type="curve"/>
      <point x="519" y="49" type="line"/>
      <point x="483" y="73"/>
      <point x="479" y="124"/>
      <point x="479" y="260" type="curve" smooth="yes"/>
      <point x="479" y="331"/>
      <point x="485" y="381"/>
      <point x="493" y="447" type="curve"/>
      <point x="406" y="457" type="line"/>
      <point x="401" y="427"/>
      <point x="398" y="394"/>
      <point x="396" y="362" type="curve"/>
      <point x="368" y="294"/>
      <point x="318" y="219"/>
      <point x="220" y="219" type="curve" smooth="yes"/>
      <point x="149" y="219"/>
      <point x="128" y="279"/>
      <point x="128" y="345" type="curve" smooth="yes"/>
      <point x="128" y="383"/>
      <point x="141" y="492"/>
      <point x="150" y="551" type="curve"/>
      <point x="494" y="531" type="line"/>
      <point x="503" y="609" type="line"/>
      <point x="223" y="623" type="line" smooth="yes"/>
      <point x="193" y="625"/>
      <point x="117" y="630"/>
      <point x="109" y="630" type="curve" smooth="yes"/>
      <point x="76" y="630"/>
      <point x="72" y="618"/>
      <point x="64" y="570" type="curve" smooth="yes"/>
      <point x="56" y="524"/>
      <point x="40" y="397"/>
      <point x="40" y="344" type="curve" smooth="yes"/>
      <point x="40" y="238"/>
      <point x="81" y="139"/>
      <point x="218" y="139" type="curve" smooth="yes"/>
      <point x="293" y="139"/>
      <point x="349" y="173"/>
      <point x="391" y="217" type="curve"/>
      <point x="392" y="61"/>
      <point x="421" y="0"/>
    </contour>
  </outline>
</glyph>
<glyph name="u1129A" format="2">
  <advance width="456"/>
  <unicode hex="1129A"/>
  <outline>
    <contour>
      <point x="216" y="-15" type="line"/>
      <point x="301" y="33"/>
      <point x="416" y="124"/>
      <point x="416" y="292" type="curve" smooth="yes"/>
      <point x="416" y="461"/>
      <point x="306" y="596"/>
      <point x="15" y="630" type="curve"/>
      <point x="0" y="547" type="line"/>
      <point x="126" y="537"/>
      <point x="203" y="503"/>
      <point x="264" y="451" type="curve"/>
      <point x="41" y="259" type="line"/>
      <point x="92" y="199" type="line"/>
      <point x="310" y="386" type="line"/>
      <point x="324" y="355"/>
      <point x="328" y="323"/>
      <point x="328" y="294" type="curve" smooth="yes"/>
      <point x="328" y="174"/>
      <point x="251" y="94"/>
      <point x="164" y="48" type="curve"/>
    </contour>
  </outline>
</glyph>
<glyph name="u1129B" format="2">
  <advance width="591"/>
  <unicode hex="1129B"/>
  <outline>
    <contour>
      <point x="546" y="-15" type="curve"/>
      <point x="571" y="63" type="line"/>
      <point x="559" y="66" type="line" smooth="yes"/>
      <point x="478" y="86"/>
      <point x="469" y="95"/>
      <point x="469" y="309" type="curve" smooth="yes"/>
      <point x="469" y="408" type="line" smooth="yes"/>
      <point x="469" y="489"/>
      <point x="475" y="555"/>
      <point x="483" y="630" type="curve"/>
      <point x="396" y="640" type="line"/>
      <point x="393" y="621"/>
      <point x="390" y="600"/>
      <point x="388" y="578" type="curve"/>
      <point x="376" y="516"/>
      <point x="346" y="363"/>
      <point x="215" y="363" type="curve" smooth="yes"/>
      <point x="147" y="363"/>
      <point x="118" y="409"/>
      <point x="118" y="489" type="curve" smooth="yes"/>
      <point x="118" y="538"/>
      <point x="129" y="589"/>
      <point x="139" y="621" type="curve"/>
      <point x="53" y="640" type="line"/>
      <point x="41" y="594"/>
      <point x="30" y="541"/>
      <point x="30" y="488" type="curve" smooth="yes"/>
      <point x="30" y="361"/>
      <point x="91" y="283"/>
      <point x="208" y="283" type="curve" smooth="yes"/>
      <point x="290" y="283"/>
      <point x="344" y="324"/>
      <point x="381" y="373" type="curve"/>
      <point x="381" y="254" type="line" smooth="yes"/>
      <point x="381" y="25"/>
      <point x="437" y="8"/>
    </contour>
  </outline>
</glyph>
<glyph name="u1129C" format="2">
  <advance width="712"/>
  <unicode hex="1129C"/>
  <outline>
    <contour>
      <point x="667" y="-15" type="curve"/>
      <point x="692" y="63" type="line"/>
      <point x="680" y="66" type="line" smooth="yes"/>
      <point x="602" y="86"/>
      <point x="590" y="89"/>
      <point x="590" y="309" type="curve" smooth="yes"/>
      <point x="590" y="358" type="line" smooth="yes"/>
      <point x="590" y="434"/>
      <point x="596" y="505"/>
      <point x="604" y="580" type="curve"/>
      <point x="517" y="590" type="line"/>
      <point x="509" y="536"/>
      <point x="505" y="470"/>
      <point x="503" y="420" type="curve"/>
      <point x="484" y="343"/>
      <point x="451" y="223"/>
      <point x="331" y="223" type="curve" smooth="yes"/>
      <point x="269" y="223"/>
      <point x="249" y="263"/>
      <point x="249" y="328" type="curve" smooth="yes"/>
      <point x="249" y="352"/>
      <point x="251" y="381"/>
      <point x="253" y="410" type="curve" smooth="yes"/>
      <point x="255" y="438"/>
      <point x="257" y="466"/>
      <point x="257" y="489" type="curve" smooth="yes"/>
      <point x="257" y="565"/>
      <point x="207" y="630"/>
      <point x="126" y="630" type="curve" smooth="yes"/>
      <point x="64" y="630"/>
      <point x="15" y="598"/>
      <point x="-20" y="556" type="curve"/>
      <point x="40" y="500" type="line"/>
      <point x="61" y="528"/>
      <point x="87" y="550"/>
      <point x="118" y="550" type="curve" smooth="yes"/>
      <point x="155" y="550"/>
      <point x="169" y="529"/>
      <point x="169" y="487" type="curve" smooth="yes"/>
      <point x="169" y="472"/>
      <point x="168" y="449"/>
      <point x="165" y="419" type="curve" smooth="yes"/>
      <point x="162" y="386"/>
      <point x="161" y="358"/>
      <point x="161" y="322" type="curve" smooth="yes"/>
      <point x="161" y="227"/>
      <point x="202" y="143"/>
      <point x="329" y="143" type="curve" smooth="yes"/>
      <point x="411" y="143"/>
      <point x="465" y="187"/>
      <point x="502" y="239" type="curve"/>
      <point x="504" y="24"/>
      <point x="560" y="7"/>
    </contour>
  </outline>
</glyph>
<glyph name="u1129D" format="2">
  <advance width="779"/>
  <unicode hex="1129D"/>
  <outline>
    <contour>
      <point x="734" y="-15" type="curve"/>
      <point x="759" y="63" type="line"/>
      <point x="747" y="66" type="line" smooth="yes"/>
      <point x="668" y="86"/>
      <point x="657" y="90"/>
      <point x="657" y="309" type="curve" smooth="yes"/>
      <point x="657" y="372" type="line" smooth="yes"/>
      <point x="657" y="480"/>
      <point x="664" y="555"/>
      <point x="671" y="630" type="curve"/>
      <point x="584" y="640" type="line"/>
      <point x="576" y="589"/>
      <point x="572" y="526"/>
      <point x="570" y="477" type="curve"/>
      <point x="501" y="303"/>
      <point x="404" y="105"/>
      <point x="251" y="105" type="curve" smooth="yes"/>
      <point x="205" y="105"/>
      <point x="179" y="138"/>
      <point x="179" y="178" type="curve" smooth="yes"/>
      <point x="179" y="248"/>
      <point x="253" y="298"/>
      <point x="325" y="324" type="curve"/>
      <point x="293" y="395" type="line"/>
      <point x="265" y="380"/>
      <point x="229" y="372"/>
      <point x="198" y="372" type="curve" smooth="yes"/>
      <point x="146" y="372"/>
      <point x="118" y="390"/>
      <point x="118" y="426" type="curve" smooth="yes"/>
      <point x="118" y="475"/>
      <point x="173" y="512"/>
      <point x="327" y="549" type="curve"/>
      <point x="298" y="634" type="line"/>
      <point x="186" y="608"/>
      <point x="30" y="555"/>
      <point x="30" y="430" type="curve" smooth="yes"/>
      <point x="30" y="343"/>
      <point x="86" y="305"/>
      <point x="150" y="295" type="curve"/>
      <point x="107" y="252"/>
      <point x="91" y="208"/>
      <point x="91" y="162" type="curve" smooth="yes"/>
      <point x="91" y="88"/>
      <point x="148" y="25"/>
      <point x="245" y="25" type="curve" smooth="yes"/>
      <point x="402" y="25"/>
      <point x="510" y="154"/>
      <point x="569" y="295" type="curve"/>
      <point x="569" y="254" type="line" smooth="yes"/>
      <point x="569" y="25"/>
      <point x="625" y="8"/>
    </contour>
  </outline>
</glyph>
<glyph name="u1129F" format="2">
  <advance width="490"/>
  <unicode hex="1129F"/>
  <outline>
    <contour>
      <point x="150" y="-14" type="line"/>
      <point x="305" y="-5"/>
      <point x="450" y="58"/>
      <point x="450" y="203" type="curve" smooth="yes"/>
      <point x="450" y="298"/>
      <point x="391" y="351"/>
      <point x="320" y="374" type="curve"/>
      <point x="358" y="402"/>
      <point x="388" y="442"/>
      <point x="388" y="500" type="curve" smooth="yes"/>
      <point x="388" y="574"/>
      <point x="329" y="630"/>
      <point x="210" y="630" type="curve" smooth="yes"/>
      <point x="153" y="630"/>
      <point x="85" y="617"/>
      <point x="20" y="591" type="curve"/>
      <point x="48" y="516" type="line"/>
      <point x="95" y="537"/>
      <point x="158" y="550"/>
      <point x="205" y="550" type="curve" smooth="yes"/>
      <point x="285" y="550"/>
      <point x="300" y="514"/>
      <point x="300" y="489" type="curve" smooth="yes"/>
      <point x="300" y="442"/>
      <point x="270" y="413"/>
      <point x="232" y="394" type="curve"/>
      <point x="221" y="395"/>
      <point x="209" y="396"/>
      <point x="199" y="396" type="curve" smooth="yes"/>
      <point x="131" y="396"/>
      <point x="75" y="372"/>
      <point x="75" y="321" type="curve" smooth="yes"/>
      <point x="75" y="288"/>
      <point x="99" y="265"/>
      <point x="141" y="265" type="curve" smooth="yes"/>
      <point x="179" y="265"/>
      <point x="214" y="280"/>
      <point x="245" y="302" type="curve"/>
      <point x="309" y="295"/>
      <point x="362" y="259"/>
      <point x="362" y="200" type="curve" smooth="yes"/>
      <point x="362" y="100"/>
      <point x="216" y="69"/>
      <point x="138" y="66" type="curve"/>
    </contour>
  </outline>
</glyph>
<glyph name="u112A0" format="2">
  <advance width="720"/>
  <unicode hex="112A0"/>
  <outline>
    <contour>
      <point x="677" y="-19" type="curve"/>
      <point x="700" y="59" type="line"/>
      <point x="612" y="78"/>
      <point x="597" y="86"/>
      <point x="597" y="165" type="curve" smooth="yes"/>
      <point x="597" y="188"/>
      <point x="598" y="211"/>
      <point x="602" y="247" type="curve" smooth="yes"/>
      <point x="606" y="280"/>
      <point x="607" y="308"/>
      <point x="607" y="334" type="curve" smooth="yes"/>
      <point x="607" y="471"/>
      <point x="538" y="549"/>
      <point x="406" y="549" type="curve" smooth="yes"/>
      <point x="333" y="549"/>
      <point x="289" y="524"/>
      <point x="250" y="485" type="curve"/>
      <point x="232" y="581"/>
      <point x="139" y="630"/>
      <point x="29" y="630" type="curve" smooth="yes"/>
      <point x="16" y="630"/>
      <point x="4" y="630"/>
      <point x="-3" y="629" type="curve"/>
      <point x="-10" y="551" type="line"/>
      <point x="118" y="551"/>
      <point x="174" y="519"/>
      <point x="174" y="431" type="curve" smooth="yes"/>
      <point x="174" y="391"/>
      <point x="167" y="340"/>
      <point x="158" y="274" type="curve" smooth="yes"/>
      <point x="135" y="101" type="line"/>
      <point x="222" y="101" type="line"/>
      <point x="243" y="266" type="line" smooth="yes"/>
      <point x="261" y="407"/>
      <point x="320" y="469"/>
      <point x="402" y="469" type="curve" smooth="yes"/>
      <point x="450" y="469"/>
      <point x="519" y="454"/>
      <point x="519" y="329" type="curve" smooth="yes"/>
      <point x="519" y="308"/>
      <point x="518" y="287"/>
      <point x="515" y="257" type="curve" smooth="yes"/>
      <point x="511" y="221"/>
      <point x="509" y="193"/>
      <point x="509" y="159" type="curve" smooth="yes"/>
      <point x="509" y="49"/>
      <point x="550" y="14"/>
      <point x="611" y="-5" type="curve" smooth="yes"/>
      <point x="627" y="-10"/>
      <point x="656" y="-16"/>
    </contour>
  </outline>
</glyph>
<glyph name="u112A1" format="2">
  <advance width="667"/>
  <unicode hex="112A1"/>
  <outline>
    <contour>
      <point x="622" y="-15" type="curve"/>
      <point x="647" y="63" type="line"/>
      <point x="635" y="66" type="line" smooth="yes"/>
      <point x="558" y="85"/>
      <point x="545" y="90"/>
      <point x="545" y="309" type="curve" smooth="yes"/>
      <point x="545" y="367" type="line" smooth="yes"/>
      <point x="545" y="458"/>
      <point x="552" y="535"/>
      <point x="559" y="610" type="curve"/>
      <point x="473" y="630" type="line"/>
      <point x="249" y="630"/>
      <point x="30" y="599"/>
      <point x="30" y="452" type="curve" smooth="yes"/>
      <point x="30" y="400"/>
      <point x="65" y="364"/>
      <point x="110" y="343" type="curve"/>
      <point x="73" y="317"/>
      <point x="47" y="281"/>
      <point x="47" y="218" type="curve" smooth="yes"/>
      <point x="47" y="155"/>
      <point x="104" y="92"/>
      <point x="201" y="92" type="curve" smooth="yes"/>
      <point x="308" y="92"/>
      <point x="394" y="146"/>
      <point x="457" y="221" type="curve"/>
      <point x="463" y="23"/>
      <point x="518" y="7"/>
    </contour>
    <contour>
      <point x="207" y="172" type="curve" smooth="yes"/>
      <point x="161" y="172"/>
      <point x="135" y="197"/>
      <point x="135" y="231" type="curve" smooth="yes"/>
      <point x="135" y="292"/>
      <point x="183" y="311"/>
      <point x="212" y="320" type="curve"/>
      <point x="218" y="320" type="line"/>
      <point x="218" y="391" type="line"/>
      <point x="142" y="400"/>
      <point x="118" y="425"/>
      <point x="118" y="458" type="curve" smooth="yes"/>
      <point x="118" y="516"/>
      <point x="248" y="550"/>
      <point x="464" y="554" type="curve"/>
      <point x="458" y="487"/>
      <point x="457" y="419"/>
      <point x="457" y="389" type="curve" smooth="yes"/>
      <point x="457" y="356" type="line"/>
      <point x="394" y="248"/>
      <point x="311" y="172"/>
    </contour>
  </outline>
</glyph>
<glyph name="u112A2" format="2">
  <advance width="628"/>
  <unicode hex="112A2"/>
  <outline>
    <contour>
      <point x="272" y="-15" type="curve" smooth="yes"/>
      <point x="354" y="-15"/>
      <point x="438" y="31"/>
      <point x="438" y="143" type="curve" smooth="yes"/>
      <point x="438" y="206"/>
      <point x="410" y="271"/>
      <point x="328" y="354" type="curve"/>
      <point x="402" y="418"/>
      <point x="503" y="489"/>
      <point x="628" y="565" type="curve"/>
      <point x="585" y="634" type="line"/>
      <point x="444" y="547"/>
      <point x="341" y="474"/>
      <point x="268" y="410" type="curve"/>
      <point x="212" y="458"/>
      <point x="139" y="512"/>
      <point x="46" y="575" type="curve"/>
      <point x="0" y="508" type="line"/>
      <point x="84" y="452"/>
      <point x="154" y="401"/>
      <point x="209" y="354" type="curve"/>
      <point x="129" y="271"/>
      <point x="102" y="205"/>
      <point x="102" y="143" type="curve" smooth="yes"/>
      <point x="102" y="30"/>
      <point x="188" y="-15"/>
    </contour>
    <contour>
      <point x="270" y="65" type="curve" smooth="yes"/>
      <point x="229" y="65"/>
      <point x="190" y="91"/>
      <point x="190" y="147" type="curve" smooth="yes"/>
      <point x="190" y="191"/>
      <point x="217" y="241"/>
      <point x="269" y="297" type="curve"/>
      <point x="322" y="242"/>
      <point x="350" y="193"/>
      <point x="350" y="152" type="curve" smooth="yes"/>
      <point x="350" y="92"/>
      <point x="311" y="65"/>
    </contour>
  </outline>
</glyph>
<glyph name="u112A3" format="2">
  <advance width="644"/>
  <unicode hex="112A3"/>
  <outline>
    <contour>
      <point x="366" y="-15" type="line"/>
      <point x="407" y="8"/>
      <point x="562" y="106"/>
      <point x="562" y="300" type="curve" smooth="yes"/>
      <point x="562" y="349"/>
      <point x="550" y="411"/>
      <point x="519" y="467" type="curve"/>
      <point x="559" y="505"/>
      <point x="597" y="544"/>
      <point x="634" y="585" type="curve"/>
      <point x="579" y="640" type="line"/>
      <point x="545" y="604"/>
      <point x="510" y="568"/>
      <point x="472" y="533" type="curve"/>
      <point x="419" y="589"/>
      <point x="339" y="630"/>
      <point x="223" y="630" type="curve" smooth="yes"/>
      <point x="127" y="630"/>
      <point x="53" y="600"/>
      <point x="0" y="562" type="curve"/>
      <point x="49" y="495" type="line"/>
      <point x="103" y="534"/>
      <point x="161" y="550"/>
      <point x="225" y="550" type="curve" smooth="yes"/>
      <point x="313" y="550"/>
      <point x="372" y="520"/>
      <point x="411" y="477" type="curve"/>
      <point x="339" y="414"/>
      <point x="264" y="355"/>
      <point x="193" y="306" type="curve"/>
      <point x="242" y="242" type="line"/>
      <point x="315" y="295"/>
      <point x="386" y="350"/>
      <point x="454" y="409" type="curve"/>
      <point x="468" y="373"/>
      <point x="474" y="336"/>
      <point x="474" y="302" type="curve" smooth="yes"/>
      <point x="474" y="182"/>
      <point x="401" y="94"/>
      <point x="314" y="48" type="curve"/>
    </contour>
  </outline>
</glyph>
<glyph name="u112A4" format="2">
  <advance width="634"/>
  <unicode hex="112A4"/>
  <outline>
    <contour>
      <point x="334" y="-15" type="curve" smooth="yes"/>
      <point x="453" y="-15"/>
      <point x="579" y="32"/>
      <point x="644" y="115" type="curve"/>
      <point x="585" y="171" type="line"/>
      <point x="536" y="107"/>
      <point x="432" y="64"/>
      <point x="341" y="64" type="curve" smooth="yes"/>
      <point x="236" y="64"/>
      <point x="171" y="101"/>
      <point x="171" y="162" type="curve" smooth="yes"/>
      <point x="171" y="200"/>
      <point x="193" y="244"/>
      <point x="279" y="275" type="curve"/>
      <point x="311" y="277"/>
      <point x="348" y="281"/>
      <point x="384" y="288" type="curve"/>
      <point x="369" y="367" type="line"/>
      <point x="336" y="360"/>
      <point x="297" y="355"/>
      <point x="259" y="355" type="curve" smooth="yes"/>
      <point x="167" y="355"/>
      <point x="118" y="395"/>
      <point x="118" y="451" type="curve" smooth="yes"/>
      <point x="118" y="509"/>
      <point x="176" y="550"/>
      <point x="269" y="550" type="curve" smooth="yes"/>
      <point x="297" y="550"/>
      <point x="328" y="547"/>
      <point x="354" y="543" type="curve"/>
      <point x="367" y="622" type="line"/>
      <point x="330" y="628"/>
      <point x="293" y="630"/>
      <point x="263" y="630" type="curve" smooth="yes"/>
      <point x="105" y="630"/>
      <point x="30" y="540"/>
      <point x="30" y="453" type="curve" smooth="yes"/>
      <point x="30" y="365"/>
      <point x="77" y="312"/>
      <point x="151" y="289" type="curve"/>
      <point x="104" y="252"/>
      <point x="83" y="208"/>
      <point x="83" y="158" type="curve" smooth="yes"/>
      <point x="83" y="44"/>
      <point x="195" y="-15"/>
    </contour>
  </outline>
</glyph>
<glyph name="u112A5" format="2">
  <advance width="667"/>
  <unicode hex="112A5"/>
  <outline>
    <contour>
      <point x="478" y="-15" type="line"/>
      <point x="546" y="55"/>
      <point x="591" y="138"/>
      <point x="591" y="217" type="curve" smooth="yes"/>
      <point x="591" y="298"/>
      <point x="525" y="359"/>
      <point x="439" y="368" type="curve"/>
      <point x="519" y="456"/>
      <point x="594" y="543"/>
      <point x="637" y="599" type="curve"/>
      <point x="578" y="651" type="line"/>
      <point x="532" y="593"/>
      <point x="454" y="504"/>
      <point x="372" y="415" type="curve"/>
      <point x="371" y="502"/>
      <point x="306" y="571"/>
      <point x="202" y="571" type="curve" smooth="yes"/>
      <point x="127" y="571"/>
      <point x="62" y="527"/>
      <point x="0" y="438" type="curve"/>
      <point x="62" y="393" type="line"/>
      <point x="98" y="440"/>
      <point x="147" y="489"/>
      <point x="201" y="489" type="curve" smooth="yes"/>
      <point x="274" y="489"/>
      <point x="290" y="431"/>
      <point x="290" y="403" type="curve" smooth="yes"/>
      <point x="290" y="324"/>
      <point x="242" y="272"/>
      <point x="146" y="180" type="curve"/>
      <point x="203" y="124" type="line"/>
      <point x="244" y="163"/>
      <point x="298" y="217"/>
      <point x="353" y="275" type="curve"/>
      <point x="373" y="286"/>
      <point x="394" y="293"/>
      <point x="415" y="293" type="curve" smooth="yes"/>
      <point x="488" y="293"/>
      <point x="504" y="235"/>
      <point x="504" y="207" type="curve" smooth="yes"/>
      <point x="504" y="148"/>
      <point x="455" y="81"/>
      <point x="417" y="41" type="curve"/>
    </contour>
  </outline>
</glyph>
<glyph name="u112A6" format="2">
  <advance width="568"/>
  <unicode hex="112A6"/>
  <outline>
    <contour>
      <point x="200" y="-15" type="curve" smooth="yes"/>
      <point x="360" y="-15"/>
      <point x="528" y="43"/>
      <point x="528" y="206" type="curve" smooth="yes"/>
      <point x="528" y="329"/>
      <point x="438" y="372"/>
      <point x="344" y="372" type="curve" smooth="yes"/>
      <point x="316" y="372"/>
      <point x="290" y="369"/>
      <point x="266" y="365" type="curve" smooth="yes"/>
      <point x="246" y="362"/>
      <point x="224" y="359"/>
      <point x="208" y="359" type="curve" smooth="yes"/>
      <point x="173" y="359"/>
      <point x="146" y="366"/>
      <point x="146" y="399" type="curve" smooth="yes"/>
      <point x="146" y="453"/>
      <point x="263" y="509"/>
      <point x="415" y="554" type="curve"/>
      <point x="388" y="630" type="line"/>
      <point x="170" y="566"/>
      <point x="58" y="501"/>
      <point x="58" y="390" type="curve" smooth="yes"/>
      <point x="58" y="327"/>
      <point x="103" y="279"/>
      <point x="190" y="279" type="curve" smooth="yes"/>
      <point x="219" y="279"/>
      <point x="250" y="283"/>
      <point x="277" y="287" type="curve" smooth="yes"/>
      <point x="297" y="290"/>
      <point x="315" y="292"/>
      <point x="330" y="292" type="curve" smooth="yes"/>
      <point x="408" y="292"/>
      <point x="440" y="258"/>
      <point x="440" y="201" type="curve" smooth="yes"/>
      <point x="440" y="99"/>
      <point x="320" y="65"/>
      <point x="222" y="65" type="curve" smooth="yes"/>
      <point x="147" y="65"/>
      <point x="93" y="74"/>
      <point x="28" y="97" type="curve"/>
      <point x="0" y="18" type="line"/>
      <point x="58" y="-3"/>
      <point x="129" y="-15"/>
    </contour>
  </outline>
</glyph>
<glyph name="u112A7" format="2">
  <advance width="952"/>
  <unicode hex="112A7"/>
  <outline>
    <contour>
      <point x="767" y="-15" type="curve" smooth="yes"/>
      <point x="815" y="-15"/>
      <point x="869" y="2"/>
      <point x="932" y="56" type="curve"/>
      <point x="881" y="124" type="line"/>
      <point x="841" y="89"/>
      <point x="805" y="65"/>
      <point x="769" y="65" type="curve" smooth="yes"/>
      <point x="704" y="65"/>
      <point x="663" y="141"/>
      <point x="619" y="282" type="curve" smooth="yes"/>
      <point x="606" y="323" type="line"/>
      <point x="597" y="402"/>
      <point x="538" y="453"/>
      <point x="456" y="453" type="curve" smooth="yes"/>
      <point x="431" y="453"/>
      <point x="409" y="448"/>
      <point x="389" y="437" type="curve"/>
      <point x="391" y="451"/>
      <point x="391" y="462"/>
      <point x="391" y="473" type="curve" smooth="yes"/>
      <point x="391" y="555"/>
      <point x="342" y="630"/>
      <point x="233" y="630" type="curve" smooth="yes"/>
      <point x="147" y="630"/>
      <point x="66" y="566"/>
      <point x="0" y="468" type="curve"/>
      <point x="62" y="418" type="line"/>
      <point x="94" y="466"/>
      <point x="166" y="550"/>
      <point x="230" y="550" type="curve" smooth="yes"/>
      <point x="289" y="550"/>
      <point x="303" y="506"/>
      <point x="303" y="466" type="curve" smooth="yes"/>
      <point x="303" y="393"/>
      <point x="250" y="332"/>
      <point x="212" y="288" type="curve"/>
      <point x="271" y="230" type="line"/>
      <point x="317" y="287"/>
      <point x="387" y="373"/>
      <point x="449" y="373" type="curve" smooth="yes"/>
      <point x="500" y="373"/>
      <point x="521" y="331"/>
      <point x="521" y="296" type="curve" smooth="yes"/>
      <point x="521" y="214"/>
      <point x="433" y="124"/>
      <point x="371" y="62" type="curve"/>
      <point x="436" y="2" type="line"/>
      <point x="499" y="62"/>
      <point x="541" y="114"/>
      <point x="568" y="160" type="curve"/>
      <point x="607" y="59"/>
      <point x="663" y="-15"/>
    </contour>
  </outline>
</glyph>
<glyph name="u112A8" format="2">
  <advance width="669"/>
  <unicode hex="112A8"/>
  <outline>
    <contour>
      <point x="195" y="-15" type="curve" smooth="yes"/>
      <point x="322" y="-15"/>
      <point x="435" y="45"/>
      <point x="435" y="188" type="curve" smooth="yes"/>
      <point x="435" y="241"/>
      <point x="413" y="280"/>
      <point x="385" y="309" type="curve"/>
      <point x="411" y="316"/>
      <point x="435" y="321"/>
      <point x="454" y="321" type="curve" smooth="yes"/>
      <point x="500" y="321"/>
      <point x="522" y="305"/>
      <point x="525" y="266" type="curve" smooth="yes"/>
      <point x="531" y="181" type="line" smooth="yes"/>
      <point x="537" y="102"/>
      <point x="545" y="64"/>
      <point x="590" y="30" type="curve"/>
      <point x="649" y="85" type="line"/>
      <point x="631" y="104"/>
      <point x="613" y="139"/>
      <point x="611" y="185" type="curve" smooth="yes"/>
      <point x="608" y="267" type="line" smooth="yes"/>
      <point x="604" y="366"/>
      <point x="545" y="401"/>
      <point x="465" y="401" type="curve" smooth="yes"/>
      <point x="440" y="401"/>
      <point x="413" y="397"/>
      <point x="387" y="391" type="curve"/>
      <point x="403" y="417"/>
      <point x="413" y="447"/>
      <point x="413" y="480" type="curve" smooth="yes"/>
      <point x="413" y="556"/>
      <point x="356" y="630"/>
      <point x="208" y="630" type="curve" smooth="yes"/>
      <point x="168" y="630"/>
      <point x="117" y="624"/>
      <point x="68" y="615" type="curve"/>
      <point x="86" y="535" type="line"/>
      <point x="120" y="543"/>
      <point x="162" y="550"/>
      <point x="208" y="550" type="curve" smooth="yes"/>
      <point x="308" y="550"/>
      <point x="325" y="505"/>
      <point x="325" y="463" type="curve" smooth="yes"/>
      <point x="325" y="369"/>
      <point x="217" y="330"/>
      <point x="143" y="325" type="curve"/>
      <point x="153" y="246" type="line"/>
      <point x="194" y="247"/>
      <point x="245" y="263"/>
      <point x="296" y="280" type="curve"/>
      <point x="331" y="257"/>
      <point x="347" y="217"/>
      <point x="347" y="177" type="curve" smooth="yes"/>
      <point x="347" y="98"/>
      <point x="272" y="65"/>
      <point x="196" y="65" type="curve" smooth="yes"/>
      <point x="142" y="65"/>
      <point x="97" y="83"/>
      <point x="59" y="105" type="curve"/>
      <point x="20" y="32" type="line"/>
      <point x="75" y="0"/>
      <point x="136" y="-15"/>
    </contour>
  </outline>
</glyph>
<glyph name="u112A9" format="2">
  <advance width="396"/>
  <unicode hex="112A9"/>
  <outline>
    <contour>
      <point x="168" y="358" type="curve" smooth="yes"/>
      <point x="216" y="358"/>
      <point x="256" y="400"/>
      <point x="256" y="453" type="curve" smooth="yes"/>
      <point x="256" y="506"/>
      <point x="216" y="549"/>
      <point x="168" y="549" type="curve" smooth="yes"/>
      <point x="120" y="549"/>
      <point x="80" y="506"/>
      <point x="80" y="453" type="curve" smooth="yes"/>
      <point x="80" y="400"/>
      <point x="120" y="358"/>
    </contour>
    <contour>
      <point x="228" y="50" type="curve" smooth="yes"/>
      <point x="276" y="50"/>
      <point x="316" y="92"/>
      <point x="316" y="145" type="curve" smooth="yes"/>
      <point x="316" y="198"/>
      <point x="276" y="241"/>
      <point x="228" y="241" type="curve" smooth="yes"/>
      <point x="180" y="241"/>
      <point x="140" y="198"/>
      <point x="140" y="145" type="curve" smooth="yes"/>
      <point x="140" y="92"/>
      <point x="180" y="50"/>
    </contour>
  </outline>
</glyph>
